<svg width="19" height="20" viewBox="0 0 19 20" fill="none" xmlns="http://www.w3.org/2000/svg">
<g id="Group 228">
<g id="Group">
<g id="Group_2">
<path id="Vector" d="M11.0201 9.00249C10.6507 8.48535 10.0449 8.14551 9.3652 8.14551C8.68552 8.14551 8.07972 8.48535 7.71034 9.00249C7.47393 9.34233 7.32617 9.75604 7.32617 10.1993C7.32617 11.3222 8.24226 12.2383 9.3652 12.2383C10.4881 12.2383 11.4042 11.3222 11.4042 10.1993C11.4042 9.75604 11.2565 9.34233 11.0201 9.00249Z" fill="#00C65E"/>
</g>
</g>
<g id="Group_3">
<g id="Group_4">
<path id="Vector_2" d="M12.3062 9.01758C12.454 9.31309 12.5426 9.78591 12.5426 10.1996C12.5426 11.9431 11.1242 13.3764 9.36587 13.3764C7.60758 13.3764 6.18913 11.9579 6.18913 10.1996C6.18913 9.77113 6.27778 9.31309 6.42554 9.01758H4.6377V13.7605C4.6377 14.3811 5.18439 14.9278 5.80496 14.9278H12.9268C13.5473 14.9278 14.094 14.3811 14.094 13.7605V9.01758H12.3062Z" fill="#00C65E"/>
</g>
</g>
<g id="Group_5">
<g id="Group_6">
<path id="Vector_3" d="M13.5611 5.73743H11.8472V7.70258H13.7975V5.98862V5.72266L13.5611 5.73743Z" fill="#00C65E"/>
</g>
</g>
<g id="Group_7">
<g id="Group_8">
<path id="Vector_4" d="M14.0047 0.890625H4.72571C2.15477 0.890625 0.0566406 2.98875 0.0566406 5.55969V14.8535C0.0566406 17.4097 2.15477 19.5078 4.72571 19.5078H14.0195C16.5905 19.5078 18.6886 17.4097 18.6886 14.8387V5.55969C18.6738 2.98875 16.5757 0.890625 14.0047 0.890625ZM15.1277 9.00239V13.7601C15.1277 15.0013 14.1673 15.9617 12.9261 15.9617H5.80433C4.56318 15.9617 3.60277 15.0013 3.60277 13.7601V9.00239V6.63831C3.60277 5.39716 4.56318 4.43675 5.80433 4.43675H12.9261C14.1673 4.43675 15.1277 5.39716 15.1277 6.63831V9.00239Z" fill="#00C65E"/>
</g>
</g>
</g>
</svg>
