<svg width="73" height="31" viewBox="0 0 73 31" fill="none" xmlns="http://www.w3.org/2000/svg">
<path d="M0.0649414 8.8315H7.16568V25.0331H10.218C17.0671 25.0331 20.4903 21.7054 20.4876 15.0499C20.4876 8.53044 17.3094 5.27189 10.953 5.27428H9.67075V0L10.5875 0C16.055 0 20.3028 1.31201 23.3311 3.93603C26.3594 6.56004 27.8721 10.2134 27.8695 14.8961C27.8695 19.8817 26.3018 23.6985 23.1664 26.3463C20.0311 28.9942 15.4927 30.3265 9.55133 30.3432H0.0649414V8.8315Z" fill="#00C65E"/>
<path d="M7.16969 0H0.0649414V6.32985H7.16969V0Z" fill="#00C65E"/>
<path d="M34.6616 12.3477H32.2271V21.1719H34.6616V12.3477ZM34.8374 9.83398C34.8374 9.42969 34.7056 9.0957 34.4507 8.84961C34.187 8.60352 33.8354 8.48047 33.396 8.48047C32.9917 8.48047 32.6665 8.60352 32.4204 8.84961C32.1743 9.0957 32.0513 9.42969 32.0513 9.83398C32.0513 10.2383 32.1655 10.5635 32.4116 10.8096C32.6577 11.0557 32.9829 11.1787 33.396 11.1787C33.8354 11.1787 34.187 11.0557 34.4507 10.8096C34.7056 10.5635 34.8374 10.2383 34.8374 9.83398ZM39.6187 8.56836H37.1841V21.1719H39.6187V8.56836ZM44.1187 21.708C43.8286 22.376 43.3188 22.7012 42.5894 22.7012C42.229 22.7012 41.9302 22.6484 41.6929 22.5254V24.6787L41.8687 24.7402C41.9917 24.793 42.1763 24.8369 42.4399 24.8809C42.6948 24.9336 42.9585 24.9512 43.2222 24.9512C44.6987 24.9512 45.8325 23.8701 46.6411 21.708L50.1479 12.3477H47.6343L45.5601 18.2012L43.4946 12.3477H40.9722L44.3911 21.084L44.1187 21.708ZM50.0425 20.0029C50.0425 20.3633 50.1831 20.6797 50.4644 20.9434C50.7456 21.2158 51.0796 21.3477 51.4839 21.3477C51.8794 21.3477 52.2222 21.2158 52.5034 20.9434C52.7847 20.6797 52.9253 20.3633 52.9253 20.0029C52.9253 19.6426 52.7847 19.3262 52.5034 19.0537C52.2222 18.79 51.8794 18.6494 51.4839 18.6494C51.0796 18.6494 50.7456 18.79 50.4644 19.0537C50.1831 19.3262 50.0425 19.6426 50.0425 20.0029ZM60.1235 12.2598H59.7632C59.2798 12.2598 58.8228 12.374 58.3833 12.585C57.9438 12.8047 57.6626 12.9805 57.5308 13.1123C57.4077 13.2441 57.3022 13.3496 57.2319 13.4287V12.3477H54.8062V21.1719H57.2319V16.9443C57.2319 16.1885 57.4253 15.6084 57.7944 15.2041C58.1636 14.7998 58.6733 14.5977 59.3062 14.5977C59.6665 14.6064 59.939 14.6416 60.1147 14.7031L60.1235 12.2598ZM67.4185 21.1719H69.8442V12.3477H67.4185V17.0322C67.4185 17.7002 67.2515 18.21 66.9263 18.5615C66.6011 18.9219 66.1616 19.0977 65.6167 19.0977C65.1245 19.0977 64.7114 18.9395 64.3862 18.6143C64.061 18.2979 63.9028 17.8848 63.9028 17.3926V12.3477H61.4771V17.6299C61.4771 18.7549 61.7935 19.6602 62.4263 20.3369C63.0591 21.0137 63.8853 21.3477 64.896 21.3477C65.3706 21.3477 65.8276 21.251 66.2671 21.0576C66.7065 20.8643 66.9878 20.7061 67.1196 20.583C67.2427 20.46 67.3481 20.3633 67.4185 20.2754V21.1719Z" fill="#00C65E"/>
</svg>
