<svg width="13" height="13" viewBox="0 0 13 13" fill="none" xmlns="http://www.w3.org/2000/svg">
<path fill-rule="evenodd" clip-rule="evenodd" d="M1.02246 12.5908C1.02246 12.5908 0.0224609 12.5908 0.0224609 11.5908C0.0224609 10.5908 1.02246 7.59082 6.02246 7.59082C11.0225 7.59082 12.0225 10.5908 12.0225 11.5908C12.0225 12.5908 11.0225 12.5908 11.0225 12.5908H1.02246ZM6.02246 6.59082C6.81811 6.59082 7.58117 6.27475 8.14378 5.71214C8.70639 5.14953 9.02246 4.38647 9.02246 3.59082C9.02246 2.79517 8.70639 2.03211 8.14378 1.4695C7.58117 0.906891 6.81811 0.59082 6.02246 0.59082C5.22681 0.59082 4.46375 0.906891 3.90114 1.4695C3.33853 2.03211 3.02246 2.79517 3.02246 3.59082C3.02246 4.38647 3.33853 5.14953 3.90114 5.71214C4.46375 6.27475 5.22681 6.59082 6.02246 6.59082Z" fill="#00C65E"/>
</svg>
