<svg width="19" height="16" viewBox="0 0 19 16" fill="none" xmlns="http://www.w3.org/2000/svg">
<g id="btn list view/off">
<path id="Vector" d="M3.2981 9.5625H1.1731C0.864863 9.5625 0.610596 9.30823 0.610596 9V6.875C0.610596 6.56677 0.864863 6.3125 1.1731 6.3125H3.2981C3.60633 6.3125 3.8606 6.56677 3.8606 6.875V9C3.8606 9.30823 3.60633 9.5625 3.2981 9.5625ZM3.2981 14.875H1.1731C0.864863 14.875 0.610596 14.6207 0.610596 14.3125V12.1875C0.610596 11.8793 0.864863 11.625 1.1731 11.625H3.2981C3.60633 11.625 3.8606 11.8793 3.8606 12.1875V14.3125C3.8606 14.6207 3.60633 14.875 3.2981 14.875ZM3.2981 4.25H1.1731C0.864863 4.25 0.610596 3.99573 0.610596 3.6875V1.5625C0.610596 1.25427 0.864863 1 1.1731 1H3.2981C3.60633 1 3.8606 1.25427 3.8606 1.5625V3.6875C3.8606 3.99573 3.60633 4.25 3.2981 4.25ZM17.1106 9.5625H6.4856C6.17736 9.5625 5.9231 9.30823 5.9231 9V6.875C5.9231 6.56677 6.17736 6.3125 6.4856 6.3125H17.1106C17.4188 6.3125 17.6731 6.56677 17.6731 6.875V9C17.6731 9.30823 17.4188 9.5625 17.1106 9.5625ZM17.1106 14.875H6.4856C6.17736 14.875 5.9231 14.6207 5.9231 14.3125V12.1875C5.9231 11.8793 6.17736 11.625 6.4856 11.625H17.1106C17.4188 11.625 17.6731 11.8793 17.6731 12.1875V14.3125C17.6731 14.6207 17.4188 14.875 17.1106 14.875ZM5.9231 3.6875V1.5625C5.9231 1.25427 6.17736 1 6.4856 1H17.1106C17.4188 1 17.6731 1.25427 17.6731 1.5625V3.6875C17.6731 3.99573 17.4188 4.25 17.1106 4.25H6.4856C6.17736 4.25 5.9231 3.99573 5.9231 3.6875Z" stroke="#363A45"/>
</g>
</svg>
