<svg width="11" height="11" viewBox="0 0 11 11" fill="none" xmlns="http://www.w3.org/2000/svg">
<g id="btn add/default">
<circle id="Ellipse 17" cx="5.57935" cy="5.71875" r="3.89803" fill="#00C65E" stroke="#00C65E" stroke-width="1.76645"/>
<g id="Group 159">
<path id="Union" fill-rule="evenodd" clip-rule="evenodd" d="M5.57927 3.27344C5.41423 3.27344 5.28044 3.40723 5.28044 3.57227V5.41993H3.43262C3.26758 5.41993 3.13379 5.55372 3.13379 5.71876C3.13379 5.88379 3.26758 6.01758 3.43262 6.01758H5.28044V7.86515C5.28044 8.03019 5.41423 8.16398 5.57927 8.16398C5.7443 8.16398 5.87809 8.03019 5.87809 7.86515V6.01758H7.7255C7.89054 6.01758 8.02433 5.88379 8.02433 5.71876C8.02433 5.55372 7.89054 5.41993 7.7255 5.41993H5.87809V3.57227C5.87809 3.40723 5.7443 3.27344 5.57927 3.27344Z" fill="white"/>
</g>
</g>
</svg>
