<svg width="15" height="16" viewBox="0 0 15 16" fill="none" xmlns="http://www.w3.org/2000/svg">
<g id="btn menu/default">
<path id="Union" fill-rule="evenodd" clip-rule="evenodd" d="M0.0652114 1.38105C0.0652114 0.663085 0.647241 0.0810547 1.36521 0.0810547H12.7652C13.4832 0.0810547 14.0652 0.663085 14.0652 1.38105C14.0652 2.09902 13.4832 2.68105 12.7652 2.68105H1.36521C0.64724 2.68105 0.0652114 2.09902 0.0652114 1.38105ZM0.0649414 7.57832C0.0649414 6.86035 0.646971 6.27832 1.36494 6.27832H12.7649C13.4829 6.27832 14.0649 6.86035 14.0649 7.57832C14.0649 8.29629 13.4829 8.87832 12.7649 8.87832H1.36494C0.64697 8.87832 0.0649414 8.29629 0.0649414 7.57832ZM1.36494 12.4756C0.646971 12.4756 0.0649414 13.0576 0.0649414 13.7756C0.0649414 14.4936 0.646971 15.0756 1.36494 15.0756H6.76494C7.48291 15.0756 8.06494 14.4936 8.06494 13.7756C8.06494 13.0576 7.48291 12.4756 6.76494 12.4756H1.36494Z" fill="#363A45"/>
</g>
</svg>
