<svg width="18" height="18" viewBox="0 0 18 18" fill="none" xmlns="http://www.w3.org/2000/svg">
<g clip-path="url(#clip0_9922_5690)">
<mask id="path-1-inside-1_9922_5690" fill="white">
<path fill-rule="evenodd" clip-rule="evenodd" d="M0.0649414 4.12659C0.0649414 3.51302 0.562337 3.01562 1.1759 3.01562H10.8973C11.5109 3.01562 12.0083 3.51302 12.0083 4.12659V5.7405H14.7411C15.1761 5.7405 15.571 5.99434 15.7517 6.39001L16.9646 9.0462C17.0307 9.19104 17.0649 9.34842 17.0649 9.50765V11.6806C17.0649 12.2941 16.5675 12.7915 15.954 12.7915H11.456V12.7907H1.17591C0.562338 12.7907 0.0649414 12.2933 0.0649414 11.6798V4.12659Z"/>
</mask>
<path d="M12.0083 5.7405H11.3083V6.4405H12.0083V5.7405ZM15.7517 6.39001L15.1149 6.68076L15.7517 6.39001ZM16.9646 9.0462L16.3278 9.33695L16.3278 9.33696L16.9646 9.0462ZM11.456 12.7915H10.756V13.4915H11.456V12.7915ZM11.456 12.7907H12.156V12.0907H11.456V12.7907ZM1.1759 2.31563C0.175738 2.31563 -0.635059 3.12642 -0.635059 4.12659H0.764941C0.764941 3.89962 0.948936 3.71562 1.1759 3.71562V2.31563ZM10.8973 2.31563H1.1759V3.71562H10.8973V2.31563ZM12.7083 4.12659C12.7083 3.12642 11.8975 2.31563 10.8973 2.31563V3.71562C11.1243 3.71562 11.3083 3.89962 11.3083 4.12659H12.7083ZM12.7083 5.7405V4.12659H11.3083V5.7405H12.7083ZM14.7411 5.0405H12.0083V6.4405H14.7411V5.0405ZM16.3885 6.09925C16.094 5.45428 15.4501 5.0405 14.7411 5.0405V6.4405C14.902 6.4405 15.0481 6.5344 15.1149 6.68076L16.3885 6.09925ZM17.6013 8.75544L16.3885 6.09925L15.1149 6.68076L16.3278 9.33695L17.6013 8.75544ZM17.7649 9.50765C17.7649 9.24809 17.7091 8.99156 17.6013 8.75544L16.3278 9.33696C16.3523 9.39053 16.3649 9.44875 16.3649 9.50765H17.7649ZM17.7649 11.6806V9.50765H16.3649V11.6806H17.7649ZM15.954 13.4915C16.9541 13.4915 17.7649 12.6807 17.7649 11.6806H16.3649C16.3649 11.9075 16.1809 12.0915 15.954 12.0915V13.4915ZM11.456 13.4915H15.954V12.0915H11.456V13.4915ZM10.756 12.7907V12.7915H12.156V12.7907H10.756ZM1.17591 13.4907H11.456V12.0907H1.17591V13.4907ZM-0.635059 11.6798C-0.635059 12.6799 0.17574 13.4907 1.17591 13.4907V12.0907C0.948937 12.0907 0.764941 11.9067 0.764941 11.6798H-0.635059ZM-0.635059 4.12659V11.6798H0.764941V4.12659H-0.635059Z" fill="#363A45" mask="url(#path-1-inside-1_9922_5690)"/>
<path d="M14.4966 6.85547H12.648C12.5253 6.85547 12.4258 6.95495 12.4258 7.07766V9.15676C12.4258 9.27948 12.5253 9.37896 12.648 9.37896H15.5233C15.685 9.37896 15.7926 9.21162 15.7254 9.06447L14.8081 7.05564C14.7524 6.9337 14.6307 6.85547 14.4966 6.85547Z" fill="#00C65E"/>
<path d="M10.8683 12.2986C10.8683 13.1245 11.5379 13.794 12.3638 13.794C13.1897 13.794 13.8592 13.1245 13.8592 12.2986C13.8592 11.4727 13.1897 10.8031 12.3638 10.8031C11.5379 10.8031 10.8683 11.4727 10.8683 12.2986Z" fill="white" stroke="#363A45" stroke-width="0.7"/>
<path d="M12.3646 13.2229C11.855 13.2229 11.4419 12.8098 11.4419 12.3002C11.4419 11.7906 11.855 11.3774 12.3646 11.3774C12.8742 11.3774 13.2874 11.7906 13.2874 12.3002C13.2874 12.8098 12.8742 13.2229 12.3646 13.2229Z" fill="#00C65E"/>
<path d="M3.27092 12.2986C3.27092 13.1245 3.94045 13.794 4.76637 13.794C5.59228 13.794 6.26182 13.1245 6.26182 12.2986C6.26182 11.4727 5.59228 10.8031 4.76637 10.8031C3.94045 10.8031 3.27092 11.4727 3.27092 12.2986Z" fill="white" stroke="#363A45" stroke-width="0.7"/>
<path d="M4.76722 13.2229C4.25761 13.2229 3.84449 12.8098 3.84449 12.3002C3.84449 11.7906 4.25761 11.3774 4.76722 11.3774C5.27682 11.3774 5.68994 11.7906 5.68994 12.3002C5.68994 12.8098 5.27682 13.2229 4.76722 13.2229Z" fill="#00C65E"/>
</g>
<defs>
<clipPath id="clip0_9922_5690">
<rect width="17" height="17" fill="white" transform="translate(0.0649414 0.078125)"/>
</clipPath>
</defs>
</svg>
