<svg width="20" height="18" viewBox="0 0 20 18" fill="none" xmlns="http://www.w3.org/2000/svg">
<g id="Btn like/default" clip-path="url(#clip0_9922_5734)">
<path id="Vector" d="M9.74406 3.32995L10.0795 3.84812L10.4154 3.33023C11.9309 0.993741 14.0569 0.52207 15.7844 1.18566C17.5372 1.859 18.9608 3.73126 18.9608 6.26055C18.9608 7.15144 18.4889 8.22616 17.694 9.3879C16.9072 10.5377 15.8426 11.718 14.7412 12.8092C13.6416 13.8987 12.5151 14.8899 11.6105 15.6622C11.2855 15.9397 10.9905 16.1878 10.735 16.4027C10.6344 16.4873 10.54 16.5667 10.4522 16.6408C10.3118 16.7593 10.1849 16.867 10.0775 16.9603C9.96515 16.8652 9.83188 16.7559 9.68465 16.6361C9.55801 16.5331 9.41892 16.4208 9.2682 16.299C9.03183 16.1081 8.76685 15.894 8.47641 15.6567C7.53059 14.8839 6.34919 13.8924 5.19453 12.8025C4.03802 11.7108 2.91881 10.5302 2.0915 9.38019C1.25472 8.21706 0.76084 7.14523 0.76084 6.26055C0.76084 3.72623 2.28037 1.84788 4.15082 1.17315C6.00259 0.505166 8.23745 1.00277 9.74406 3.32995Z" stroke="#363A45" stroke-width="0.8"/>
</g>
<defs>
<clipPath id="clip0_9922_5734">
<rect width="19" height="17" fill="white" transform="translate(0.36084 0.5)"/>
</clipPath>
</defs>
</svg>
