<svg width="20" height="20" viewBox="0 0 20 20" fill="none" xmlns="http://www.w3.org/2000/svg">
<g id="Group">
<path id="Vector" d="M14.8109 0.890625H5.51709C2.96092 0.890625 0.862793 2.98875 0.862793 5.55969V14.8535C0.862793 17.4097 2.96092 19.5078 5.51709 19.5078H14.8109C17.3818 19.5078 19.48 17.4097 19.48 14.8387V5.55969C19.48 2.98875 17.3818 0.890625 14.8109 0.890625ZM12.6684 10.1992H10.9102V15.9617H8.69383V10.1992H7.51178V7.83513H8.54607V6.83039C8.54607 5.88476 9.01889 4.39243 11.0136 4.39243H12.831V6.35757H11.5455C11.3386 6.35757 11.0579 6.49055 11.0579 6.9486V7.83513H12.8753L12.6684 10.1992Z" fill="#00C65E"/>
</g>
</svg>
