<svg width="34" height="34" viewBox="0 0 34 34" fill="none" xmlns="http://www.w3.org/2000/svg">
<g id="icon social media-vk/off">
<circle id="Ellipse 20" cx="16.5757" cy="17.1992" r="16.5" fill="white"/>
<path id="Exclude" fill-rule="evenodd" clip-rule="evenodd" d="M11.9219 7.89062C9.35138 7.89062 7.26758 9.97442 7.26758 12.5449V21.8535C7.26758 24.424 9.35138 26.5078 11.9219 26.5078H21.2305C23.801 26.5078 25.8848 24.424 25.8848 21.8535V12.5449C25.8848 9.97442 23.801 7.89062 21.2305 7.89062H11.9219ZM22.0852 13.5146C22.4957 13.5146 22.582 13.7259 22.4957 14.0135V14.0136C22.3231 14.8047 20.6693 17.1345 20.6693 17.1345C20.5254 17.3645 20.4679 17.4795 20.6693 17.7384C20.7402 17.8377 20.8914 17.9858 21.0645 18.1554C21.2425 18.3298 21.4436 18.5268 21.6041 18.7164C22.1872 19.3725 22.6266 19.9258 22.749 20.3072C22.8609 20.6899 22.667 20.8839 22.2791 20.8839H20.9216C20.558 20.8839 20.375 20.6802 19.9796 20.2403C19.8119 20.0537 19.6059 19.8246 19.3318 19.5505C18.5263 18.7739 18.1812 18.6733 17.9797 18.6733C17.7066 18.6733 17.6248 18.7506 17.6248 19.1385V20.3559C17.6248 20.6899 17.5182 20.8839 16.6552 20.8839C15.217 20.8839 13.6367 20.0106 12.5148 18.4C10.8322 16.0415 10.3719 14.2581 10.3719 13.8985C10.3719 13.6971 10.4495 13.5146 10.8373 13.5146H12.1948C12.5418 13.5146 12.6723 13.6664 12.8024 14.0423C13.4664 15.9763 14.5858 17.6666 15.046 17.6666C15.2186 17.6666 15.2977 17.5871 15.2977 17.1488V15.1497C15.2665 14.5807 15.0678 14.3346 14.9206 14.1524C14.8296 14.0398 14.7584 13.9515 14.7584 13.8266C14.7584 13.6747 14.8881 13.5146 15.1038 13.5146H17.237C17.5247 13.5146 17.6248 13.6683 17.6248 14.0135V16.7029C17.6248 16.9905 17.7497 17.0911 17.836 17.0911C18.0086 17.0911 18.1524 16.9905 18.4688 16.6742C19.4468 15.5812 20.1372 13.8985 20.1372 13.8985C20.2235 13.6971 20.3825 13.5146 20.7277 13.5146H22.0852Z" fill="#00C65E"/>
</g>
</svg>
