<svg width="18" height="19" viewBox="0 0 18 19" fill="none" xmlns="http://www.w3.org/2000/svg">
<g id="&#208;&#161;&#208;&#187;&#208;&#190;&#208;&#185; 1">
<g id="Group">
<path id="Vector" d="M14.0575 13.6123L5.13777 4.17731C5.13777 4.0896 5.05554 3.81548 5.0062 3.49751C4.98004 2.94089 4.76986 2.40869 4.40863 1.9844C3.7672 1.37038 2.87359 0.931796 2.18282 1.12368L3.02161 2.01181C3.14569 2.12484 3.24541 2.26201 3.31464 2.41492C3.38387 2.56782 3.42117 2.73325 3.42425 2.90108C3.42733 3.0689 3.39613 3.23558 3.33255 3.39093C3.26897 3.54627 3.17436 3.68701 3.0545 3.80452C2.93019 3.91354 2.7848 3.99583 2.62735 4.04629C2.4699 4.09676 2.30375 4.11431 2.13923 4.09786C1.97471 4.0814 1.81533 4.0313 1.67099 3.95066C1.52665 3.87002 1.40043 3.76056 1.30017 3.62908L0.461378 2.74095C0.203711 3.42076 0.614882 4.3363 1.18504 5.01062C1.59117 5.40249 2.11541 5.64919 2.67622 5.71235C3.05998 5.80007 3.38344 5.89327 3.38344 5.89327L12.2648 15.2954C12.1841 15.6628 12.1949 16.0445 12.2962 16.4068C12.3975 16.7691 12.5863 17.1009 12.8459 17.3732C13.0464 17.587 13.287 17.7592 13.5541 17.8801C13.8212 18.0009 14.1094 18.0679 14.4024 18.0773C14.6954 18.0867 14.9873 18.0384 15.2616 17.935C15.5359 17.8315 15.7871 17.6751 16.0009 17.4746C16.2148 17.2741 16.387 17.0334 16.5078 16.7664C16.6286 16.4993 16.6957 16.2111 16.7051 15.9181C16.7145 15.6251 16.6661 15.3331 16.5627 15.0589C16.4593 14.7846 16.3029 14.5334 16.1024 14.3195C15.845 14.0439 15.5241 13.8354 15.1677 13.7121C14.8113 13.5889 14.4301 13.5546 14.0575 13.6123Z" fill="white" stroke="#363A45" stroke-width="0.7" stroke-linecap="round" stroke-linejoin="round"/>
<path id="Vector_2" d="M15.9771 1.95025L15.5111 1.48425L15.4015 1.5939L12.9838 3.40854L13.2743 3.6991L8.85013 8.14524L7.95652 7.2571L7.40829 7.80533L7.63306 8.35356L7.08484 8.90179L0.856952 15.1735C0.598168 15.4335 0.452881 15.7853 0.452881 16.1521C0.452881 16.5189 0.598168 16.8708 0.856952 17.1307L1.02142 17.3007C1.15024 17.4296 1.30321 17.5319 1.4716 17.6017C1.63998 17.6715 1.82047 17.7075 2.00275 17.7075C2.18503 17.7075 2.36552 17.6715 2.53391 17.6017C2.70229 17.5319 2.85526 17.4296 2.98408 17.3007L9.77664 10.5465L10.3249 10.7713L10.8731 10.223L9.98497 9.33489L14.475 4.88876L14.771 5.17932L16.6021 2.77807L16.7063 2.66843L16.2348 2.19695L15.9771 1.95025Z" fill="white" stroke="#363A45" stroke-width="0.7" stroke-linecap="round" stroke-linejoin="round"/>
<path id="Vector_3" d="M8.44652 9.31363L8.13767 9.00146L7.98823 9.15423L8.06793 9.35016L7.86868 9.54942L4.27346 13.1579C4.22828 13.2027 4.19242 13.256 4.16794 13.3147C4.14346 13.3734 4.13086 13.4364 4.13086 13.5C4.13086 13.5636 4.14346 13.6266 4.16794 13.6853C4.19242 13.744 4.22828 13.7973 4.27346 13.842L4.33324 13.9018C4.37801 13.947 4.43129 13.9829 4.49 14.0073C4.54871 14.0318 4.61169 14.0444 4.6753 14.0444C4.73891 14.0444 4.80189 14.0318 4.8606 14.0073C4.91931 13.9829 4.97259 13.947 5.01736 13.9018L8.82179 10.1073L9.0144 10.187L9.16385 10.0343L8.85168 9.72211L8.44652 9.31363Z" fill="#00C65E"/>
<path id="Vector_4" d="M15.3786 16.4303C15.2612 16.6167 15.0908 16.7639 14.8894 16.8532C14.6879 16.9424 14.4644 16.9695 14.2475 16.9312C14.0305 16.8928 13.8299 16.7907 13.6712 16.6378C13.5125 16.4849 13.403 16.2882 13.3566 16.0728C13.3102 15.8574 13.3291 15.6331 13.4108 15.4284C13.4925 15.2238 13.6333 15.0481 13.8152 14.9239C13.9972 14.7996 14.212 14.7324 14.4323 14.7307C14.6527 14.7291 14.8685 14.7932 15.0522 14.9148C15.1733 14.9928 15.2777 15.0939 15.3597 15.2123C15.4416 15.3307 15.4993 15.4641 15.5297 15.6049C15.56 15.7456 15.5622 15.891 15.5363 16.0326C15.5104 16.1742 15.4568 16.3094 15.3786 16.4303Z" fill="#00C65E"/>
</g>
</g>
</svg>
