<svg width="24" height="24" viewBox="0 0 24 24" fill="none" xmlns="http://www.w3.org/2000/svg">
<g id="btn slider small/default">
<circle id="Ellipse 14" cx="11.6912" cy="12.1067" r="11.1067" transform="rotate(-90 11.6912 12.1067)" fill="white" stroke="#363A45"/>
<path id="Union" fill-rule="evenodd" clip-rule="evenodd" d="M14.6127 12.6913L9.9392 17.3649C9.61654 17.6876 9.09339 17.6876 8.77072 17.3649C8.44806 17.0423 8.44807 16.5191 8.77073 16.1965L12.86 12.1071L8.77031 8.01742C8.44765 7.69475 8.44766 7.1716 8.77032 6.84894C9.09298 6.52627 9.61614 6.52626 9.9388 6.84893L14.5937 11.5038C14.6002 11.5099 14.6063 11.5164 14.6127 11.5228C14.8946 11.8051 14.9302 12.2412 14.7185 12.5617C14.6883 12.6075 14.653 12.6509 14.6127 12.6913Z" fill="#363A45"/>
</g>
</svg>
